<?xml version="1.0" encoding="UTF-8" standalone="no"?>
<!DOCTYPE svg PUBLIC "-//W3C//DTD SVG 1.1//EN"
 "http://www.w3.org/Graphics/SVG/1.1/DTD/svg11.dtd">
<!-- Generated by graphviz version 2.47.0 (20210316.0004)
 -->
<!-- Title: dependencies Pages: 1 -->
<svg width="532pt" height="276pt"
 viewBox="0.00 0.00 532.00 276.00" xmlns="http://www.w3.org/2000/svg" xmlns:xlink="http://www.w3.org/1999/xlink">
<g id="graph0" class="graph" transform="scale(1 1) rotate(0) translate(4 272)">
<title>dependencies</title>
<polygon fill="white" stroke="transparent" points="-4,4 -4,-272 528,-272 528,4 -4,4"/>
<text text-anchor="start" x="241.01" y="-42.4" font-family="Times-12" font-weight="bold" font-size="14.00">Legend</text>
<polygon fill="#ffffb3" stroke="transparent" points="28,-10 28,-30 48,-30 48,-10 28,-10"/>
<text text-anchor="start" x="51.63" y="-15.4" font-family="Times-12" font-size="14.00"> &#160;Declarations</text>
<polygon fill="#8dd3c7" stroke="transparent" points="141,-10 141,-30 161,-30 161,-10 141,-10"/>
<text text-anchor="start" x="164.73" y="-15.4" font-family="Times-12" font-size="14.00"> &#160;Module</text>
<polygon fill="#80b1d3" stroke="transparent" points="227,-10 227,-30 247,-30 247,-10 227,-10"/>
<text text-anchor="start" x="250.78" y="-15.4" font-family="Times-12" font-size="14.00"> &#160;Bootstrap</text>
<polygon fill="#fdb462" stroke="transparent" points="324,-10 324,-30 344,-30 344,-10 324,-10"/>
<text text-anchor="start" x="347.67" y="-15.4" font-family="Times-12" font-size="14.00"> &#160;Providers</text>
<polygon fill="#fb8072" stroke="transparent" points="420,-10 420,-30 440,-30 440,-10 420,-10"/>
<text text-anchor="start" x="443.73" y="-15.4" font-family="Times-12" font-size="14.00"> &#160;Exports</text>
<g id="clust1" class="cluster">
<title>cluster_MainModule</title>
<polygon fill="none" stroke="black" stroke-dasharray="1,5" points="8,-70 8,-260 516,-260 516,-70 8,-70"/>
</g>
<g id="clust4" class="cluster">
<title>cluster_MainModule_imports</title>
<polygon fill="none" stroke="black" points="234,-143 234,-195 508,-195 508,-143 234,-143"/>
</g>
<g id="clust3" class="cluster">
<title>cluster_MainModule_MainComponent_providers</title>
<polygon fill="none" stroke="black" points="16,-78 16,-195 226,-195 226,-78 16,-78"/>
</g>
<!-- MainComponent -->
<g id="node1" class="node">
<title>MainComponent</title>
<polygon fill="#ffffb3" stroke="black" points="197.38,-187 86.62,-187 86.62,-151 197.38,-151 197.38,-187"/>
<text text-anchor="middle" x="142" y="-164.8" font-family="Times,serif" font-size="14.00">MainComponent</text>
</g>
<!-- MainModule -->
<g id="node2" class="node">
<title>MainModule</title>
<polygon fill="#8dd3c7" stroke="black" points="347.6,-252 344.6,-256 323.6,-256 320.6,-252 258.4,-252 258.4,-216 347.6,-216 347.6,-252"/>
<text text-anchor="middle" x="303" y="-229.8" font-family="Times,serif" font-size="14.00">MainModule</text>
</g>
<!-- MainComponent&#45;&gt;MainModule -->
<g id="edge1" class="edge">
<title>MainComponent&#45;&gt;MainModule</title>
<path fill="none" stroke="black" d="M142,-187.11C142,-206.34 142,-234 142,-234 142,-234 248.15,-234 248.15,-234"/>
<polygon fill="black" stroke="black" points="248.15,-237.5 258.15,-234 248.15,-230.5 248.15,-237.5"/>
</g>
<!-- AppPageTitleStrategy -->
<g id="node3" class="node">
<title>AppPageTitleStrategy</title>
<ellipse fill="#fdb462" stroke="black" cx="121" cy="-104" rx="96.71" ry="18"/>
<text text-anchor="middle" x="121" y="-99.8" font-family="Times,serif" font-size="14.00">AppPageTitleStrategy</text>
</g>
<!-- AppPageTitleStrategy&#45;&gt;MainComponent -->
<g id="edge2" class="edge">
<title>AppPageTitleStrategy&#45;&gt;MainComponent</title>
<path fill="none" stroke="black" d="M142,-121.76C142,-121.76 142,-140.81 142,-140.81"/>
<polygon fill="black" stroke="black" points="138.5,-140.81 142,-150.81 145.5,-140.81 138.5,-140.81"/>
</g>
<!-- FooterComponent -->
<g id="node4" class="node">
<title>FooterComponent</title>
<polygon fill="#8dd3c7" stroke="black" points="499.88,-187 496.88,-191 475.88,-191 472.88,-187 382.12,-187 382.12,-151 499.88,-151 499.88,-187"/>
<text text-anchor="middle" x="441" y="-164.8" font-family="Times,serif" font-size="14.00">FooterComponent</text>
</g>
<!-- FooterComponent&#45;&gt;MainModule -->
<g id="edge3" class="edge">
<title>FooterComponent&#45;&gt;MainModule</title>
<path fill="none" stroke="black" d="M441,-187.11C441,-206.34 441,-234 441,-234 441,-234 357.8,-234 357.8,-234"/>
<polygon fill="black" stroke="black" points="357.8,-230.5 347.8,-234 357.8,-237.5 357.8,-230.5"/>
</g>
<!-- NavbarComponent -->
<g id="node5" class="node">
<title>NavbarComponent</title>
<polygon fill="#8dd3c7" stroke="black" points="364.03,-187 361.03,-191 340.03,-191 337.03,-187 241.97,-187 241.97,-151 364.03,-151 364.03,-187"/>
<text text-anchor="middle" x="303" y="-164.8" font-family="Times,serif" font-size="14.00">NavbarComponent</text>
</g>
<!-- NavbarComponent&#45;&gt;MainModule -->
<g id="edge4" class="edge">
<title>NavbarComponent&#45;&gt;MainModule</title>
<path fill="none" stroke="black" d="M303,-187.11C303,-187.11 303,-205.99 303,-205.99"/>
<polygon fill="black" stroke="black" points="299.5,-205.99 303,-215.99 306.5,-205.99 299.5,-205.99"/>
</g>
</g>
</svg>
