<?xml version="1.0" encoding="UTF-8" standalone="no"?>
<!DOCTYPE svg PUBLIC "-//W3C//DTD SVG 1.1//EN"
 "http://www.w3.org/Graphics/SVG/1.1/DTD/svg11.dtd">
<!-- Generated by graphviz version 2.47.0 (20210316.0004)
 -->
<!-- Title: dependencies Pages: 1 -->
<svg width="564pt" height="276pt"
 viewBox="0.00 0.00 564.00 276.00" xmlns="http://www.w3.org/2000/svg" xmlns:xlink="http://www.w3.org/1999/xlink">
<g id="graph0" class="graph" transform="scale(1 1) rotate(0) translate(4 272)">
<title>dependencies</title>
<polygon fill="white" stroke="transparent" points="-4,4 -4,-272 560,-272 560,4 -4,4"/>
<text text-anchor="start" x="257.01" y="-42.4" font-family="Times-12" font-weight="bold" font-size="14.00">Legend</text>
<polygon fill="#ffffb3" stroke="transparent" points="44,-10 44,-30 64,-30 64,-10 44,-10"/>
<text text-anchor="start" x="67.63" y="-15.4" font-family="Times-12" font-size="14.00"> &#160;Declarations</text>
<polygon fill="#8dd3c7" stroke="transparent" points="157,-10 157,-30 177,-30 177,-10 157,-10"/>
<text text-anchor="start" x="180.73" y="-15.4" font-family="Times-12" font-size="14.00"> &#160;Module</text>
<polygon fill="#80b1d3" stroke="transparent" points="243,-10 243,-30 263,-30 263,-10 243,-10"/>
<text text-anchor="start" x="266.78" y="-15.4" font-family="Times-12" font-size="14.00"> &#160;Bootstrap</text>
<polygon fill="#fdb462" stroke="transparent" points="340,-10 340,-30 360,-30 360,-10 340,-10"/>
<text text-anchor="start" x="363.67" y="-15.4" font-family="Times-12" font-size="14.00"> &#160;Providers</text>
<polygon fill="#fb8072" stroke="transparent" points="436,-10 436,-30 456,-30 456,-10 436,-10"/>
<text text-anchor="start" x="459.73" y="-15.4" font-family="Times-12" font-size="14.00"> &#160;Exports</text>
<g id="clust1" class="cluster">
<title>cluster_MainModule</title>
<polygon fill="none" stroke="black" stroke-dasharray="1,5" points="8,-70 8,-260 548,-260 548,-70 8,-70"/>
</g>
<g id="clust2" class="cluster">
<title>cluster_MainModule_declarations</title>
<polygon fill="none" stroke="black" points="16,-143 16,-195 142,-195 142,-143 16,-143"/>
</g>
<g id="clust4" class="cluster">
<title>cluster_MainModule_imports</title>
<polygon fill="none" stroke="black" points="150,-143 150,-195 540,-195 540,-143 150,-143"/>
</g>
<g id="clust3" class="cluster">
<title>cluster_MainModule_MainComponent_providers</title>
<polygon fill="none" stroke="black" points="16,-78 16,-130 226,-130 226,-78 16,-78"/>
</g>
<!-- MainComponent -->
<g id="node1" class="node">
<title>MainComponent</title>
<polygon fill="#ffffb3" stroke="black" points="134.38,-187 23.62,-187 23.62,-151 134.38,-151 134.38,-187"/>
<text text-anchor="middle" x="79" y="-164.8" font-family="Times,serif" font-size="14.00">MainComponent</text>
</g>
<!-- MainModule -->
<g id="node2" class="node">
<title>MainModule</title>
<polygon fill="#8dd3c7" stroke="black" points="315.6,-252 312.6,-256 291.6,-256 288.6,-252 226.4,-252 226.4,-216 315.6,-216 315.6,-252"/>
<text text-anchor="middle" x="271" y="-229.8" font-family="Times,serif" font-size="14.00">MainModule</text>
</g>
<!-- MainComponent&#45;&gt;MainModule -->
<g id="edge1" class="edge">
<title>MainComponent&#45;&gt;MainModule</title>
<path fill="none" stroke="black" d="M79,-187.11C79,-206.34 79,-234 79,-234 79,-234 215.98,-234 215.98,-234"/>
<polygon fill="black" stroke="black" points="215.98,-237.5 225.98,-234 215.98,-230.5 215.98,-237.5"/>
</g>
<!-- AppPageTitleStrategy -->
<g id="node3" class="node">
<title>AppPageTitleStrategy</title>
<ellipse fill="#fdb462" stroke="black" cx="121" cy="-104" rx="96.71" ry="18"/>
<text text-anchor="middle" x="121" y="-99.8" font-family="Times,serif" font-size="14.00">AppPageTitleStrategy</text>
</g>
<!-- AppPageTitleStrategy&#45;&gt;MainComponent -->
<g id="edge2" class="edge">
<title>AppPageTitleStrategy&#45;&gt;MainComponent</title>
<path fill="none" stroke="black" d="M79.29,-120.4C79.29,-120.4 79.29,-140.54 79.29,-140.54"/>
<polygon fill="black" stroke="black" points="75.79,-140.54 79.29,-150.54 82.79,-140.54 75.79,-140.54"/>
</g>
<!-- FooterComponent -->
<g id="node4" class="node">
<title>FooterComponent</title>
<polygon fill="#8dd3c7" stroke="black" points="531.88,-187 528.88,-191 507.88,-191 504.88,-187 414.12,-187 414.12,-151 531.88,-151 531.88,-187"/>
<text text-anchor="middle" x="473" y="-164.8" font-family="Times,serif" font-size="14.00">FooterComponent</text>
</g>
<!-- FooterComponent&#45;&gt;MainModule -->
<g id="edge3" class="edge">
<title>FooterComponent&#45;&gt;MainModule</title>
<path fill="none" stroke="black" d="M473,-187.11C473,-206.34 473,-234 473,-234 473,-234 325.83,-234 325.83,-234"/>
<polygon fill="black" stroke="black" points="325.83,-230.5 315.83,-234 325.83,-237.5 325.83,-230.5"/>
</g>
<!-- NavbarComponent -->
<g id="node5" class="node">
<title>NavbarComponent</title>
<polygon fill="#8dd3c7" stroke="black" points="396.03,-187 393.03,-191 372.03,-191 369.03,-187 273.97,-187 273.97,-151 396.03,-151 396.03,-187"/>
<text text-anchor="middle" x="335" y="-164.8" font-family="Times,serif" font-size="14.00">NavbarComponent</text>
</g>
<!-- NavbarComponent&#45;&gt;MainModule -->
<g id="edge4" class="edge">
<title>NavbarComponent&#45;&gt;MainModule</title>
<path fill="none" stroke="black" d="M294.64,-187.11C294.64,-187.11 294.64,-205.99 294.64,-205.99"/>
<polygon fill="black" stroke="black" points="291.14,-205.99 294.64,-215.99 298.14,-205.99 291.14,-205.99"/>
</g>
<!-- SharedModule -->
<g id="node6" class="node">
<title>SharedModule</title>
<polygon fill="#8dd3c7" stroke="black" points="256.42,-187 253.42,-191 232.42,-191 229.42,-187 157.58,-187 157.58,-151 256.42,-151 256.42,-187"/>
<text text-anchor="middle" x="207" y="-164.8" font-family="Times,serif" font-size="14.00">SharedModule</text>
</g>
<!-- SharedModule&#45;&gt;MainModule -->
<g id="edge5" class="edge">
<title>SharedModule&#45;&gt;MainModule</title>
<path fill="none" stroke="black" d="M241.33,-187.11C241.33,-187.11 241.33,-205.99 241.33,-205.99"/>
<polygon fill="black" stroke="black" points="237.83,-205.99 241.33,-215.99 244.83,-205.99 237.83,-205.99"/>
</g>
</g>
</svg>
