<?xml version="1.0" encoding="UTF-8" standalone="no"?>
<!DOCTYPE svg PUBLIC "-//W3C//DTD SVG 1.1//EN"
 "http://www.w3.org/Graphics/SVG/1.1/DTD/svg11.dtd">
<!-- Generated by graphviz version 2.47.0 (20210316.0004)
 -->
<!-- Title: dependencies Pages: 1 -->
<svg width="504pt" height="284pt"
 viewBox="0.00 0.00 504.00 284.00" xmlns="http://www.w3.org/2000/svg" xmlns:xlink="http://www.w3.org/1999/xlink">
<g id="graph0" class="graph" transform="scale(1 1) rotate(0) translate(4 280)">
<title>dependencies</title>
<polygon fill="white" stroke="transparent" points="-4,4 -4,-280 500,-280 500,4 -4,4"/>
<text text-anchor="start" x="227.01" y="-42.4" font-family="Times-12" font-weight="bold" font-size="14.00">Legend</text>
<polygon fill="#ffffb3" stroke="transparent" points="14,-10 14,-30 34,-30 34,-10 14,-10"/>
<text text-anchor="start" x="37.63" y="-15.4" font-family="Times-12" font-size="14.00"> &#160;Declarations</text>
<polygon fill="#8dd3c7" stroke="transparent" points="127,-10 127,-30 147,-30 147,-10 127,-10"/>
<text text-anchor="start" x="150.73" y="-15.4" font-family="Times-12" font-size="14.00"> &#160;Module</text>
<polygon fill="#80b1d3" stroke="transparent" points="213,-10 213,-30 233,-30 233,-10 213,-10"/>
<text text-anchor="start" x="236.78" y="-15.4" font-family="Times-12" font-size="14.00"> &#160;Bootstrap</text>
<polygon fill="#fdb462" stroke="transparent" points="310,-10 310,-30 330,-30 330,-10 310,-10"/>
<text text-anchor="start" x="333.67" y="-15.4" font-family="Times-12" font-size="14.00"> &#160;Providers</text>
<polygon fill="#fb8072" stroke="transparent" points="406,-10 406,-30 426,-30 426,-10 406,-10"/>
<text text-anchor="start" x="429.73" y="-15.4" font-family="Times-12" font-size="14.00"> &#160;Exports</text>
<g id="clust1" class="cluster">
<title>cluster_SharedModule</title>
<polygon fill="none" stroke="black" stroke-dasharray="1,5" points="94.5,-70 94.5,-268 401.5,-268 401.5,-70 94.5,-70"/>
</g>
<g id="clust3" class="cluster">
<title>cluster_SharedModule_imports</title>
<polygon fill="none" stroke="black" points="106.5,-78 106.5,-130 390.5,-130 390.5,-78 106.5,-78"/>
</g>
<g id="clust4" class="cluster">
<title>cluster_SharedModule_exports</title>
<polygon fill="none" stroke="black" points="102.5,-208 102.5,-260 393.5,-260 393.5,-208 102.5,-208"/>
</g>
<!-- AlertComponent -->
<g id="node1" class="node">
<title>AlertComponent</title>
<polygon fill="#8dd3c7" stroke="black" points="382.6,-122 379.6,-126 358.6,-126 355.6,-122 272.4,-122 272.4,-86 382.6,-86 382.6,-122"/>
<text text-anchor="middle" x="327.5" y="-99.8" font-family="Times,serif" font-size="14.00">AlertComponent</text>
</g>
<!-- SharedModule -->
<g id="node3" class="node">
<title>SharedModule</title>
<polygon fill="#8dd3c7" stroke="black" points="234.92,-187 231.92,-191 210.92,-191 207.92,-187 136.08,-187 136.08,-151 234.92,-151 234.92,-187"/>
<text text-anchor="middle" x="185.5" y="-164.8" font-family="Times,serif" font-size="14.00">SharedModule</text>
</g>
<!-- AlertComponent&#45;&gt;SharedModule -->
<g id="edge1" class="edge">
<title>AlertComponent&#45;&gt;SharedModule</title>
<path fill="none" stroke="black" d="M345.85,-122.02C345.85,-139.37 345.85,-163 345.85,-163 345.85,-163 244.92,-163 244.92,-163"/>
<polygon fill="black" stroke="black" points="244.92,-159.5 234.92,-163 244.92,-166.5 244.92,-159.5"/>
</g>
<!-- AlertErrorComponent -->
<g id="node2" class="node">
<title>AlertErrorComponent</title>
<polygon fill="#8dd3c7" stroke="black" points="254.13,-122 251.13,-126 230.13,-126 227.13,-122 114.87,-122 114.87,-86 254.13,-86 254.13,-122"/>
<text text-anchor="middle" x="184.5" y="-99.8" font-family="Times,serif" font-size="14.00">AlertErrorComponent</text>
</g>
<!-- AlertErrorComponent&#45;&gt;SharedModule -->
<g id="edge2" class="edge">
<title>AlertErrorComponent&#45;&gt;SharedModule</title>
<path fill="none" stroke="black" d="M185.5,-122.11C185.5,-122.11 185.5,-140.99 185.5,-140.99"/>
<polygon fill="black" stroke="black" points="182,-140.99 185.5,-150.99 189,-140.99 182,-140.99"/>
</g>
<!-- AlertComponent  -->
<g id="node4" class="node">
<title>AlertComponent </title>
<polygon fill="#fb8072" stroke="black" points="385.1,-252 271.9,-252 271.9,-216 385.1,-216 385.1,-252"/>
<text text-anchor="middle" x="328.5" y="-229.8" font-family="Times,serif" font-size="14.00">AlertComponent </text>
</g>
<!-- SharedModule&#45;&gt;AlertComponent  -->
<g id="edge3" class="edge">
<title>SharedModule&#45;&gt;AlertComponent </title>
<path fill="none" stroke="black" stroke-dasharray="5,2" d="M234.73,-175C269.21,-175 309.15,-175 309.15,-175 309.15,-175 309.15,-205.98 309.15,-205.98"/>
<polygon fill="black" stroke="black" points="305.65,-205.98 309.15,-215.98 312.65,-205.98 305.65,-205.98"/>
</g>
<!-- AlertErrorComponent  -->
<g id="node5" class="node">
<title>AlertErrorComponent </title>
<polygon fill="#fb8072" stroke="black" points="254.13,-252 110.87,-252 110.87,-216 254.13,-216 254.13,-252"/>
<text text-anchor="middle" x="182.5" y="-229.8" font-family="Times,serif" font-size="14.00">AlertErrorComponent </text>
</g>
<!-- SharedModule&#45;&gt;AlertErrorComponent  -->
<g id="edge4" class="edge">
<title>SharedModule&#45;&gt;AlertErrorComponent </title>
<path fill="none" stroke="black" stroke-dasharray="5,2" d="M185.5,-187.11C185.5,-187.11 185.5,-205.99 185.5,-205.99"/>
<polygon fill="black" stroke="black" points="182,-205.99 185.5,-215.99 189,-205.99 182,-205.99"/>
</g>
</g>
</svg>
