<?xml version="1.0" encoding="UTF-8" standalone="no"?>
<!DOCTYPE svg PUBLIC "-//W3C//DTD SVG 1.1//EN"
 "http://www.w3.org/Graphics/SVG/1.1/DTD/svg11.dtd">
<!-- Generated by graphviz version 2.47.0 (20210316.0004)
 -->
<!-- Title: dependencies Pages: 1 -->
<svg width="1255pt" height="428pt"
 viewBox="0.00 0.00 1255.00 428.00" xmlns="http://www.w3.org/2000/svg" xmlns:xlink="http://www.w3.org/1999/xlink">
<g id="graph0" class="graph" transform="scale(1 1) rotate(0) translate(4 424)">
<title>dependencies</title>
<polygon fill="white" stroke="transparent" points="-4,4 -4,-424 1251,-424 1251,4 -4,4"/>
<text text-anchor="start" x="602.51" y="-42.4" font-family="Times-12" font-weight="bold" font-size="14.00">Legend</text>
<polygon fill="#ffffb3" stroke="transparent" points="389.5,-10 389.5,-30 409.5,-30 409.5,-10 389.5,-10"/>
<text text-anchor="start" x="413.13" y="-15.4" font-family="Times-12" font-size="14.00"> &#160;Declarations</text>
<polygon fill="#8dd3c7" stroke="transparent" points="502.5,-10 502.5,-30 522.5,-30 522.5,-10 502.5,-10"/>
<text text-anchor="start" x="526.23" y="-15.4" font-family="Times-12" font-size="14.00"> &#160;Module</text>
<polygon fill="#80b1d3" stroke="transparent" points="588.5,-10 588.5,-30 608.5,-30 608.5,-10 588.5,-10"/>
<text text-anchor="start" x="612.28" y="-15.4" font-family="Times-12" font-size="14.00"> &#160;Bootstrap</text>
<polygon fill="#fdb462" stroke="transparent" points="685.5,-10 685.5,-30 705.5,-30 705.5,-10 685.5,-10"/>
<text text-anchor="start" x="709.17" y="-15.4" font-family="Times-12" font-size="14.00"> &#160;Providers</text>
<polygon fill="#fb8072" stroke="transparent" points="781.5,-10 781.5,-30 801.5,-30 801.5,-10 781.5,-10"/>
<text text-anchor="start" x="805.23" y="-15.4" font-family="Times-12" font-size="14.00"> &#160;Exports</text>
<g id="clust1" class="cluster">
<title>cluster_AppModule</title>
<polygon fill="none" stroke="black" stroke-dasharray="1,5" points="309,-214 309,-412 577,-412 577,-214 309,-214"/>
</g>
<g id="clust3" class="cluster">
<title>cluster_AppModule_imports</title>
<polygon fill="none" stroke="black" points="317,-222 317,-274 569,-274 569,-222 317,-222"/>
</g>
<g id="clust5" class="cluster">
<title>cluster_AppModule_bootstrap</title>
<polygon fill="none" stroke="black" points="374,-352 374,-404 504,-404 504,-352 374,-352"/>
</g>
<g id="clust19" class="cluster">
<title>cluster_MainModule</title>
<polygon fill="none" stroke="black" stroke-dasharray="1,5" points="8,-70 8,-206 632,-206 632,-70 8,-70"/>
</g>
<g id="clust20" class="cluster">
<title>cluster_MainModule_declarations</title>
<polygon fill="none" stroke="black" points="132,-146 132,-198 258,-198 258,-146 132,-146"/>
</g>
<g id="clust21" class="cluster">
<title>cluster_MainModule_MainComponent_providers</title>
<polygon fill="none" stroke="black" points="16,-78 16,-130 226,-130 226,-78 16,-78"/>
</g>
<g id="clust22" class="cluster">
<title>cluster_MainModule_imports</title>
<polygon fill="none" stroke="black" points="234,-78 234,-130 624,-130 624,-78 234,-78"/>
</g>
<g id="clust26" class="cluster">
<title>cluster_SharedModule</title>
<polygon fill="none" stroke="black" stroke-dasharray="1,5" points="640,-138 640,-206 1239,-206 1239,-138 640,-138"/>
</g>
<g id="clust28" class="cluster">
<title>cluster_SharedModule_imports</title>
<polygon fill="none" stroke="black" points="947,-146 947,-198 1231,-198 1231,-146 947,-146"/>
</g>
<g id="clust29" class="cluster">
<title>cluster_SharedModule_exports</title>
<polygon fill="none" stroke="black" points="648,-146 648,-198 939,-198 939,-146 648,-146"/>
</g>
<!-- AppRoutingModule -->
<g id="node1" class="node">
<title>AppRoutingModule</title>
<polygon fill="#8dd3c7" stroke="black" points="561.27,-266 558.27,-270 537.27,-270 534.27,-266 432.73,-266 432.73,-230 561.27,-230 561.27,-266"/>
<text text-anchor="middle" x="497" y="-243.8" font-family="Times,serif" font-size="14.00">AppRoutingModule</text>
</g>
<!-- AppModule -->
<g id="node3" class="node">
<title>AppModule</title>
<polygon fill="#8dd3c7" stroke="black" points="480.66,-331 477.66,-335 456.66,-335 453.66,-331 397.34,-331 397.34,-295 480.66,-295 480.66,-331"/>
<text text-anchor="middle" x="439" y="-308.8" font-family="Times,serif" font-size="14.00">AppModule</text>
</g>
<!-- AppRoutingModule&#45;&gt;AppModule -->
<g id="edge1" class="edge">
<title>AppRoutingModule&#45;&gt;AppModule</title>
<path fill="none" stroke="black" d="M456.72,-266.11C456.72,-266.11 456.72,-284.99 456.72,-284.99"/>
<polygon fill="black" stroke="black" points="453.22,-284.99 456.72,-294.99 460.22,-284.99 453.22,-284.99"/>
</g>
<!-- MainModule -->
<g id="node2" class="node">
<title>MainModule</title>
<polygon fill="#8dd3c7" stroke="black" points="414.6,-266 411.6,-270 390.6,-270 387.6,-266 325.4,-266 325.4,-230 414.6,-230 414.6,-266"/>
<text text-anchor="middle" x="370" y="-243.8" font-family="Times,serif" font-size="14.00">MainModule</text>
</g>
<!-- MainModule&#45;&gt;AppModule -->
<g id="edge2" class="edge">
<title>MainModule&#45;&gt;AppModule</title>
<path fill="none" stroke="black" d="M405.86,-266.11C405.86,-266.11 405.86,-284.99 405.86,-284.99"/>
<polygon fill="black" stroke="black" points="402.36,-284.99 405.86,-294.99 409.36,-284.99 402.36,-284.99"/>
</g>
<!-- MainComponent  -->
<g id="node4" class="node">
<title>MainComponent </title>
<polygon fill="#80b1d3" stroke="black" points="496.38,-396 381.62,-396 381.62,-360 496.38,-360 496.38,-396"/>
<text text-anchor="middle" x="439" y="-373.8" font-family="Times,serif" font-size="14.00">MainComponent </text>
</g>
<!-- AppModule&#45;&gt;MainComponent  -->
<g id="edge3" class="edge">
<title>AppModule&#45;&gt;MainComponent </title>
<path fill="none" stroke="black" stroke-dasharray="1,5" d="M439,-331.11C439,-331.11 439,-349.99 439,-349.99"/>
<polygon fill="black" stroke="black" points="435.5,-349.99 439,-359.99 442.5,-349.99 435.5,-349.99"/>
</g>
<!-- MainComponent -->
<g id="node5" class="node">
<title>MainComponent</title>
<polygon fill="#ffffb3" stroke="black" points="250.38,-190 139.62,-190 139.62,-154 250.38,-154 250.38,-190"/>
<text text-anchor="middle" x="195" y="-167.8" font-family="Times,serif" font-size="14.00">MainComponent</text>
</g>
<!-- MainComponent&#45;&gt;MainModule -->
<g id="edge4" class="edge">
<title>MainComponent&#45;&gt;MainModule</title>
<path fill="none" stroke="black" d="M250.69,-166C290.46,-166 336.95,-166 336.95,-166 336.95,-166 336.95,-219.8 336.95,-219.8"/>
<polygon fill="black" stroke="black" points="333.45,-219.8 336.95,-229.8 340.45,-219.8 333.45,-219.8"/>
</g>
<!-- AppPageTitleStrategy -->
<g id="node6" class="node">
<title>AppPageTitleStrategy</title>
<ellipse fill="#fdb462" stroke="black" cx="121" cy="-104" rx="96.71" ry="18"/>
<text text-anchor="middle" x="121" y="-99.8" font-family="Times,serif" font-size="14.00">AppPageTitleStrategy</text>
</g>
<!-- AppPageTitleStrategy&#45;&gt;MainComponent -->
<g id="edge5" class="edge">
<title>AppPageTitleStrategy&#45;&gt;MainComponent</title>
<path fill="none" stroke="black" d="M178.71,-118.75C178.71,-118.75 178.71,-143.88 178.71,-143.88"/>
<polygon fill="black" stroke="black" points="175.21,-143.88 178.71,-153.88 182.21,-143.88 175.21,-143.88"/>
</g>
<!-- FooterComponent -->
<g id="node7" class="node">
<title>FooterComponent</title>
<polygon fill="#8dd3c7" stroke="black" points="359.88,-122 356.88,-126 335.88,-126 332.88,-122 242.12,-122 242.12,-86 359.88,-86 359.88,-122"/>
<text text-anchor="middle" x="301" y="-99.8" font-family="Times,serif" font-size="14.00">FooterComponent</text>
</g>
<!-- FooterComponent&#45;&gt;MainModule -->
<g id="edge6" class="edge">
<title>FooterComponent&#45;&gt;MainModule</title>
<path fill="none" stroke="black" d="M348.44,-122.24C348.44,-122.24 348.44,-219.91 348.44,-219.91"/>
<polygon fill="black" stroke="black" points="344.94,-219.91 348.44,-229.91 351.94,-219.91 344.94,-219.91"/>
</g>
<!-- NavbarComponent -->
<g id="node8" class="node">
<title>NavbarComponent</title>
<polygon fill="#8dd3c7" stroke="black" points="500.03,-122 497.03,-126 476.03,-126 473.03,-122 377.97,-122 377.97,-86 500.03,-86 500.03,-122"/>
<text text-anchor="middle" x="439" y="-99.8" font-family="Times,serif" font-size="14.00">NavbarComponent</text>
</g>
<!-- NavbarComponent&#45;&gt;MainModule -->
<g id="edge7" class="edge">
<title>NavbarComponent&#45;&gt;MainModule</title>
<path fill="none" stroke="black" d="M390.01,-122.24C390.01,-122.24 390.01,-219.91 390.01,-219.91"/>
<polygon fill="black" stroke="black" points="386.51,-219.91 390.01,-229.91 393.51,-219.91 386.51,-219.91"/>
</g>
<!-- SharedModule -->
<g id="node9" class="node">
<title>SharedModule</title>
<polygon fill="#8dd3c7" stroke="black" points="616.42,-122 613.42,-126 592.42,-126 589.42,-122 517.58,-122 517.58,-86 616.42,-86 616.42,-122"/>
<text text-anchor="middle" x="567" y="-99.8" font-family="Times,serif" font-size="14.00">SharedModule</text>
</g>
<!-- SharedModule&#45;&gt;MainModule -->
<g id="edge8" class="edge">
<title>SharedModule&#45;&gt;MainModule</title>
<path fill="none" stroke="black" d="M539.59,-122.19C539.59,-130.28 539.59,-138 539.59,-138 539.59,-138 402.28,-138 402.28,-138 402.28,-138 402.28,-219.84 402.28,-219.84"/>
<polygon fill="black" stroke="black" points="398.78,-219.84 402.28,-229.84 405.78,-219.84 398.78,-219.84"/>
</g>
<!-- AlertComponent  -->
<g id="node12" class="node">
<title>AlertComponent </title>
<polygon fill="#fb8072" stroke="black" points="930.6,-190 817.4,-190 817.4,-154 930.6,-154 930.6,-190"/>
<text text-anchor="middle" x="874" y="-167.8" font-family="Times,serif" font-size="14.00">AlertComponent </text>
</g>
<!-- SharedModule&#45;&gt;AlertComponent  -->
<g id="edge11" class="edge">
<title>SharedModule&#45;&gt;AlertComponent </title>
<path fill="none" stroke="black" stroke-dasharray="5,2" d="M616.32,-113C703.11,-113 874,-113 874,-113 874,-113 874,-143.98 874,-143.98"/>
<polygon fill="black" stroke="black" points="870.5,-143.98 874,-153.98 877.5,-143.98 870.5,-143.98"/>
</g>
<!-- AlertErrorComponent  -->
<g id="node13" class="node">
<title>AlertErrorComponent </title>
<polygon fill="#fb8072" stroke="black" points="799.63,-190 656.37,-190 656.37,-154 799.63,-154 799.63,-190"/>
<text text-anchor="middle" x="728" y="-167.8" font-family="Times,serif" font-size="14.00">AlertErrorComponent </text>
</g>
<!-- SharedModule&#45;&gt;AlertErrorComponent  -->
<g id="edge12" class="edge">
<title>SharedModule&#45;&gt;AlertErrorComponent </title>
<path fill="none" stroke="black" stroke-dasharray="5,2" d="M588.8,-122.29C588.8,-144.21 588.8,-178 588.8,-178 588.8,-178 646.36,-178 646.36,-178"/>
<polygon fill="black" stroke="black" points="646.36,-181.5 656.36,-178 646.36,-174.5 646.36,-181.5"/>
</g>
<!-- AlertComponent -->
<g id="node10" class="node">
<title>AlertComponent</title>
<polygon fill="#8dd3c7" stroke="black" points="1223.1,-190 1220.1,-194 1199.1,-194 1196.1,-190 1112.9,-190 1112.9,-154 1223.1,-154 1223.1,-190"/>
<text text-anchor="middle" x="1168" y="-167.8" font-family="Times,serif" font-size="14.00">AlertComponent</text>
</g>
<!-- AlertComponent&#45;&gt;SharedModule -->
<g id="edge9" class="edge">
<title>AlertComponent&#45;&gt;SharedModule</title>
<path fill="none" stroke="black" d="M1168,-153.75C1168,-130.98 1168,-95 1168,-95 1168,-95 626.44,-95 626.44,-95"/>
<polygon fill="black" stroke="black" points="626.44,-91.5 616.44,-95 626.44,-98.5 626.44,-91.5"/>
</g>
<!-- AlertErrorComponent -->
<g id="node11" class="node">
<title>AlertErrorComponent</title>
<polygon fill="#8dd3c7" stroke="black" points="1094.63,-190 1091.63,-194 1070.63,-194 1067.63,-190 955.37,-190 955.37,-154 1094.63,-154 1094.63,-190"/>
<text text-anchor="middle" x="1025" y="-167.8" font-family="Times,serif" font-size="14.00">AlertErrorComponent</text>
</g>
<!-- AlertErrorComponent&#45;&gt;SharedModule -->
<g id="edge10" class="edge">
<title>AlertErrorComponent&#45;&gt;SharedModule</title>
<path fill="none" stroke="black" d="M1025,-153.78C1025,-133.63 1025,-104 1025,-104 1025,-104 626.45,-104 626.45,-104"/>
<polygon fill="black" stroke="black" points="626.45,-100.5 616.45,-104 626.45,-107.5 626.45,-100.5"/>
</g>
</g>
</svg>
