<?xml version="1.0" encoding="UTF-8" standalone="no"?>
<!DOCTYPE svg PUBLIC "-//W3C//DTD SVG 1.1//EN"
 "http://www.w3.org/Graphics/SVG/1.1/DTD/svg11.dtd">
<!-- Generated by graphviz version 2.47.0 (20210316.0004)
 -->
<!-- Title: dependencies Pages: 1 -->
<svg width="504pt" height="284pt"
 viewBox="0.00 0.00 504.00 284.00" xmlns="http://www.w3.org/2000/svg" xmlns:xlink="http://www.w3.org/1999/xlink">
<g id="graph0" class="graph" transform="scale(1 1) rotate(0) translate(4 280)">
<title>dependencies</title>
<polygon fill="white" stroke="transparent" points="-4,4 -4,-280 500,-280 500,4 -4,4"/>
<text text-anchor="start" x="227.01" y="-42.4" font-family="Times-12" font-weight="bold" font-size="14.00">Legend</text>
<polygon fill="#ffffb3" stroke="transparent" points="14,-10 14,-30 34,-30 34,-10 14,-10"/>
<text text-anchor="start" x="37.63" y="-15.4" font-family="Times-12" font-size="14.00"> &#160;Declarations</text>
<polygon fill="#8dd3c7" stroke="transparent" points="127,-10 127,-30 147,-30 147,-10 127,-10"/>
<text text-anchor="start" x="150.73" y="-15.4" font-family="Times-12" font-size="14.00"> &#160;Module</text>
<polygon fill="#80b1d3" stroke="transparent" points="213,-10 213,-30 233,-30 233,-10 213,-10"/>
<text text-anchor="start" x="236.78" y="-15.4" font-family="Times-12" font-size="14.00"> &#160;Bootstrap</text>
<polygon fill="#fdb462" stroke="transparent" points="310,-10 310,-30 330,-30 330,-10 310,-10"/>
<text text-anchor="start" x="333.67" y="-15.4" font-family="Times-12" font-size="14.00"> &#160;Providers</text>
<polygon fill="#fb8072" stroke="transparent" points="406,-10 406,-30 426,-30 426,-10 406,-10"/>
<text text-anchor="start" x="429.73" y="-15.4" font-family="Times-12" font-size="14.00"> &#160;Exports</text>
<g id="clust1" class="cluster">
<title>cluster_AppModule</title>
<polygon fill="none" stroke="black" stroke-dasharray="1,5" points="114,-70 114,-268 382,-268 382,-70 114,-70"/>
</g>
<g id="clust5" class="cluster">
<title>cluster_AppModule_bootstrap</title>
<polygon fill="none" stroke="black" points="179,-208 179,-260 309,-260 309,-208 179,-208"/>
</g>
<g id="clust3" class="cluster">
<title>cluster_AppModule_imports</title>
<polygon fill="none" stroke="black" points="122,-78 122,-130 374,-130 374,-78 122,-78"/>
</g>
<!-- AppRoutingModule -->
<g id="node1" class="node">
<title>AppRoutingModule</title>
<polygon fill="#8dd3c7" stroke="black" points="366.27,-122 363.27,-126 342.27,-126 339.27,-122 237.73,-122 237.73,-86 366.27,-86 366.27,-122"/>
<text text-anchor="middle" x="302" y="-99.8" font-family="Times,serif" font-size="14.00">AppRoutingModule</text>
</g>
<!-- AppModule -->
<g id="node3" class="node">
<title>AppModule</title>
<polygon fill="#8dd3c7" stroke="black" points="285.66,-187 282.66,-191 261.66,-191 258.66,-187 202.34,-187 202.34,-151 285.66,-151 285.66,-187"/>
<text text-anchor="middle" x="244" y="-164.8" font-family="Times,serif" font-size="14.00">AppModule</text>
</g>
<!-- AppRoutingModule&#45;&gt;AppModule -->
<g id="edge1" class="edge">
<title>AppRoutingModule&#45;&gt;AppModule</title>
<path fill="none" stroke="black" d="M261.72,-122.11C261.72,-122.11 261.72,-140.99 261.72,-140.99"/>
<polygon fill="black" stroke="black" points="258.22,-140.99 261.72,-150.99 265.22,-140.99 258.22,-140.99"/>
</g>
<!-- MainModule -->
<g id="node2" class="node">
<title>MainModule</title>
<polygon fill="#8dd3c7" stroke="black" points="219.6,-122 216.6,-126 195.6,-126 192.6,-122 130.4,-122 130.4,-86 219.6,-86 219.6,-122"/>
<text text-anchor="middle" x="175" y="-99.8" font-family="Times,serif" font-size="14.00">MainModule</text>
</g>
<!-- MainModule&#45;&gt;AppModule -->
<g id="edge2" class="edge">
<title>MainModule&#45;&gt;AppModule</title>
<path fill="none" stroke="black" d="M210.86,-122.11C210.86,-122.11 210.86,-140.99 210.86,-140.99"/>
<polygon fill="black" stroke="black" points="207.36,-140.99 210.86,-150.99 214.36,-140.99 207.36,-140.99"/>
</g>
<!-- MainComponent  -->
<g id="node4" class="node">
<title>MainComponent </title>
<polygon fill="#80b1d3" stroke="black" points="301.38,-252 186.62,-252 186.62,-216 301.38,-216 301.38,-252"/>
<text text-anchor="middle" x="244" y="-229.8" font-family="Times,serif" font-size="14.00">MainComponent </text>
</g>
<!-- AppModule&#45;&gt;MainComponent  -->
<g id="edge3" class="edge">
<title>AppModule&#45;&gt;MainComponent </title>
<path fill="none" stroke="black" stroke-dasharray="1,5" d="M244,-187.11C244,-187.11 244,-205.99 244,-205.99"/>
<polygon fill="black" stroke="black" points="240.5,-205.99 244,-215.99 247.5,-205.99 240.5,-205.99"/>
</g>
</g>
</svg>
