<?xml version="1.0" encoding="UTF-8" standalone="no"?>
<!DOCTYPE svg PUBLIC "-//W3C//DTD SVG 1.1//EN"
 "http://www.w3.org/Graphics/SVG/1.1/DTD/svg11.dtd">
<!-- Generated by graphviz version 2.47.0 (20210316.0004)
 -->
<!-- Title: dependencies Pages: 1 -->
<svg width="532pt" height="425pt"
 viewBox="0.00 0.00 532.00 425.00" xmlns="http://www.w3.org/2000/svg" xmlns:xlink="http://www.w3.org/1999/xlink">
<g id="graph0" class="graph" transform="scale(1 1) rotate(0) translate(4 421)">
<title>dependencies</title>
<polygon fill="white" stroke="transparent" points="-4,4 -4,-421 528,-421 528,4 -4,4"/>
<text text-anchor="start" x="241.01" y="-42.4" font-family="Times-12" font-weight="bold" font-size="14.00">Legend</text>
<polygon fill="#ffffb3" stroke="transparent" points="28,-10 28,-30 48,-30 48,-10 28,-10"/>
<text text-anchor="start" x="51.63" y="-15.4" font-family="Times-12" font-size="14.00"> &#160;Declarations</text>
<polygon fill="#8dd3c7" stroke="transparent" points="141,-10 141,-30 161,-30 161,-10 141,-10"/>
<text text-anchor="start" x="164.73" y="-15.4" font-family="Times-12" font-size="14.00"> &#160;Module</text>
<polygon fill="#80b1d3" stroke="transparent" points="227,-10 227,-30 247,-30 247,-10 227,-10"/>
<text text-anchor="start" x="250.78" y="-15.4" font-family="Times-12" font-size="14.00"> &#160;Bootstrap</text>
<polygon fill="#fdb462" stroke="transparent" points="324,-10 324,-30 344,-30 344,-10 324,-10"/>
<text text-anchor="start" x="347.67" y="-15.4" font-family="Times-12" font-size="14.00"> &#160;Providers</text>
<polygon fill="#fb8072" stroke="transparent" points="420,-10 420,-30 440,-30 440,-10 420,-10"/>
<text text-anchor="start" x="443.73" y="-15.4" font-family="Times-12" font-size="14.00"> &#160;Exports</text>
<g id="clust1" class="cluster">
<title>cluster_AppModule</title>
<polygon fill="none" stroke="black" stroke-dasharray="1,5" points="240,-211 240,-409 508,-409 508,-211 240,-211"/>
</g>
<g id="clust3" class="cluster">
<title>cluster_AppModule_imports</title>
<polygon fill="none" stroke="black" points="248,-219 248,-271 500,-271 500,-219 248,-219"/>
</g>
<g id="clust5" class="cluster">
<title>cluster_AppModule_bootstrap</title>
<polygon fill="none" stroke="black" points="305,-349 305,-401 435,-401 435,-349 305,-349"/>
</g>
<g id="clust19" class="cluster">
<title>cluster_MainModule</title>
<polygon fill="none" stroke="black" stroke-dasharray="1,5" points="8,-70 8,-203 516,-203 516,-70 8,-70"/>
</g>
<g id="clust20" class="cluster">
<title>cluster_MainModule_declarations</title>
<polygon fill="none" stroke="black" points="107,-143 107,-195 233,-195 233,-143 107,-143"/>
</g>
<g id="clust21" class="cluster">
<title>cluster_MainModule_MainComponent_providers</title>
<polygon fill="none" stroke="black" points="16,-78 16,-130 226,-130 226,-78 16,-78"/>
</g>
<g id="clust22" class="cluster">
<title>cluster_MainModule_imports</title>
<polygon fill="none" stroke="black" points="234,-78 234,-130 508,-130 508,-78 234,-78"/>
</g>
<!-- AppRoutingModule -->
<g id="node1" class="node">
<title>AppRoutingModule</title>
<polygon fill="#8dd3c7" stroke="black" points="492.27,-263 489.27,-267 468.27,-267 465.27,-263 363.73,-263 363.73,-227 492.27,-227 492.27,-263"/>
<text text-anchor="middle" x="428" y="-240.8" font-family="Times,serif" font-size="14.00">AppRoutingModule</text>
</g>
<!-- AppModule -->
<g id="node3" class="node">
<title>AppModule</title>
<polygon fill="#8dd3c7" stroke="black" points="411.66,-328 408.66,-332 387.66,-332 384.66,-328 328.34,-328 328.34,-292 411.66,-292 411.66,-328"/>
<text text-anchor="middle" x="370" y="-305.8" font-family="Times,serif" font-size="14.00">AppModule</text>
</g>
<!-- AppRoutingModule&#45;&gt;AppModule -->
<g id="edge1" class="edge">
<title>AppRoutingModule&#45;&gt;AppModule</title>
<path fill="none" stroke="black" d="M387.72,-263.11C387.72,-263.11 387.72,-281.99 387.72,-281.99"/>
<polygon fill="black" stroke="black" points="384.22,-281.99 387.72,-291.99 391.22,-281.99 384.22,-281.99"/>
</g>
<!-- MainModule -->
<g id="node2" class="node">
<title>MainModule</title>
<polygon fill="#8dd3c7" stroke="black" points="345.6,-263 342.6,-267 321.6,-267 318.6,-263 256.4,-263 256.4,-227 345.6,-227 345.6,-263"/>
<text text-anchor="middle" x="301" y="-240.8" font-family="Times,serif" font-size="14.00">MainModule</text>
</g>
<!-- MainModule&#45;&gt;AppModule -->
<g id="edge2" class="edge">
<title>MainModule&#45;&gt;AppModule</title>
<path fill="none" stroke="black" d="M336.86,-263.11C336.86,-263.11 336.86,-281.99 336.86,-281.99"/>
<polygon fill="black" stroke="black" points="333.36,-281.99 336.86,-291.99 340.36,-281.99 333.36,-281.99"/>
</g>
<!-- MainComponent  -->
<g id="node4" class="node">
<title>MainComponent </title>
<polygon fill="#80b1d3" stroke="black" points="427.38,-393 312.62,-393 312.62,-357 427.38,-357 427.38,-393"/>
<text text-anchor="middle" x="370" y="-370.8" font-family="Times,serif" font-size="14.00">MainComponent </text>
</g>
<!-- AppModule&#45;&gt;MainComponent  -->
<g id="edge3" class="edge">
<title>AppModule&#45;&gt;MainComponent </title>
<path fill="none" stroke="black" stroke-dasharray="1,5" d="M370,-328.11C370,-328.11 370,-346.99 370,-346.99"/>
<polygon fill="black" stroke="black" points="366.5,-346.99 370,-356.99 373.5,-346.99 366.5,-346.99"/>
</g>
<!-- MainComponent -->
<g id="node5" class="node">
<title>MainComponent</title>
<polygon fill="#ffffb3" stroke="black" points="225.38,-187 114.62,-187 114.62,-151 225.38,-151 225.38,-187"/>
<text text-anchor="middle" x="170" y="-164.8" font-family="Times,serif" font-size="14.00">MainComponent</text>
</g>
<!-- MainComponent&#45;&gt;MainModule -->
<g id="edge4" class="edge">
<title>MainComponent&#45;&gt;MainModule</title>
<path fill="none" stroke="black" d="M225.64,-169C252.39,-169 278.73,-169 278.73,-169 278.73,-169 278.73,-216.99 278.73,-216.99"/>
<polygon fill="black" stroke="black" points="275.23,-216.99 278.73,-226.99 282.23,-216.99 275.23,-216.99"/>
</g>
<!-- AppPageTitleStrategy -->
<g id="node6" class="node">
<title>AppPageTitleStrategy</title>
<ellipse fill="#fdb462" stroke="black" cx="121" cy="-104" rx="96.71" ry="18"/>
<text text-anchor="middle" x="121" y="-99.8" font-family="Times,serif" font-size="14.00">AppPageTitleStrategy</text>
</g>
<!-- AppPageTitleStrategy&#45;&gt;MainComponent -->
<g id="edge5" class="edge">
<title>AppPageTitleStrategy&#45;&gt;MainComponent</title>
<path fill="none" stroke="black" d="M166.21,-120.07C166.21,-120.07 166.21,-140.82 166.21,-140.82"/>
<polygon fill="black" stroke="black" points="162.71,-140.82 166.21,-150.82 169.71,-140.82 162.71,-140.82"/>
</g>
<!-- FooterComponent -->
<g id="node7" class="node">
<title>FooterComponent</title>
<polygon fill="#8dd3c7" stroke="black" points="359.88,-122 356.88,-126 335.88,-126 332.88,-122 242.12,-122 242.12,-86 359.88,-86 359.88,-122"/>
<text text-anchor="middle" x="301" y="-99.8" font-family="Times,serif" font-size="14.00">FooterComponent</text>
</g>
<!-- FooterComponent&#45;&gt;MainModule -->
<g id="edge6" class="edge">
<title>FooterComponent&#45;&gt;MainModule</title>
<path fill="none" stroke="black" d="M301,-122.14C301,-122.14 301,-216.93 301,-216.93"/>
<polygon fill="black" stroke="black" points="297.5,-216.92 301,-226.93 304.5,-216.93 297.5,-216.92"/>
</g>
<!-- NavbarComponent -->
<g id="node8" class="node">
<title>NavbarComponent</title>
<polygon fill="#8dd3c7" stroke="black" points="500.03,-122 497.03,-126 476.03,-126 473.03,-122 377.97,-122 377.97,-86 500.03,-86 500.03,-122"/>
<text text-anchor="middle" x="439" y="-99.8" font-family="Times,serif" font-size="14.00">NavbarComponent</text>
</g>
<!-- NavbarComponent&#45;&gt;MainModule -->
<g id="edge7" class="edge">
<title>NavbarComponent&#45;&gt;MainModule</title>
<path fill="none" stroke="black" d="M435.06,-122.04C435.06,-129.75 435.06,-137 435.06,-137 435.06,-137 323.27,-137 323.27,-137 323.27,-137 323.27,-216.68 323.27,-216.68"/>
<polygon fill="black" stroke="black" points="319.77,-216.68 323.27,-226.68 326.77,-216.68 319.77,-216.68"/>
</g>
</g>
</svg>
